{"title":"Lucifer S01 1080p BluRay HEVC DD5.1 x265","uid":15832137,"size":9683196500,"categoryP":"video","categoryS":"hd___tv_shows","magnet":"?xt=urn:btih:de15746ca5e162868d8cfdca0e84fb270cfd25d3&amp;dn=Lucifer+S01+1080p+BluRay+HEVC+DD5.1+x265&amp;tr=udp%3A%2F%2Ftracker.leechers-paradise.org%3A6969&amp;tr=udp%3A%2F%2Fzer0day.ch%3A1337&amp;tr=udp%3A%2F%2Fopen.demonii.com%3A1337&amp;tr=udp%3A%2F%2Ftracker.coppersurfer.tk%3A6969&amp;tr=udp%3A%2F%2Fexodus.desync.com%3A6969","seeders":3,"leechers":4,"uploader":"nayhtut","files":13,"time":1473927228,"description":"[Screenshots Gallery Link]\r\n\r\n[http://postimg.org/gallery/u0xm5m28]\r\n\r\nSource:  Lucifer S01 1080p BluRay x264-SHORTBREHD (Size: 42.6 GB)\r\n\r\n\r\nContains: Lucifer Season One - Episode 01 to 13\r\n\r\nFormat                                   : Matroska\r\nFormat version                           : Version 4 / Version 2\r\nFile size                                : 9.01 GiB\r\nDuration                                 : Various\r\nOverall bit rate                         : 2 259 Kbps\r\nWriting application                      : Lavf57.25.100\r\nWriting library                          : Lavf57.25.100\r\n\r\nVideo\r\n\r\nID                                       : 1\r\nFormat                                   : V_MPEGH/ISO/HEVC\r\nCodec ID                                 : V_MPEGH/ISO/HEVC\r\nDuration                                 : 45mn 0s\r\nBit rate                                 : 1 830 Kbps\r\nWidth                                    : 1 920 pixels\r\nHeight                                   : 1 080 pixels\r\nDisplay aspect ratio                     : 16:9\r\nFrame rate                               : 25.000 fps\r\nBits/(Pixel*Frame)                       : 0.035\r\nStream size                              : 589 MiB (81%)\r\nWriting library                          : Lavc57.48.101 libx265\r\nDefault                                  : Yes\r\nForced                                   : No\r\nDURATION                                 : 00:45:00.171000000\r\n\r\nAudio\r\n\r\nID                                       : 2\r\nFormat                                   : AC-3\r\nFormat/Info                              : Audio Coding 3\r\nMode extension                           : CM (complete main)\r\nFormat settings, Endianness              : Big\r\nCodec ID                                 : A_AC3\r\nDuration                                 : 45mn 0s\r\nBit rate mode                            : Constant\r\nBit rate                                 : 384 Kbps\r\nChannel(s)                               : 6 channels\r\nChannel positions                        : Front: L C R, Side: L R, LFE\r\nSampling rate                            : 48.0 KHz\r\nBit depth                                : 16 bits\r\nCompression mode                         : Lossy\r\nStream size                              : 124 MiB (17%)\r\nWriting library                          : Lavc57.24.102 ac3\r\nLanguage                                 : English\r\nDefault                                  : Yes\r\nForced                                   : No\r\nDURATION                                 : 00:45:00.223000000\r\n\r\nText\r\n\r\nID                                       : 3\r\nFormat                                   : ASS\r\nCodec ID                                 : S_TEXT/ASS\r\nCodec ID/Info                            : Advanced Sub Station Alpha\r\nCompression mode                         : Lossless\r\nWriting library                          : Lavc57.48.101 ssa\r\nLanguage                                 : English\r\nDefault                                  : No\r\nForced                                   : No\r\nDURATION                                 : 00:44:18.291000000\r\n\r\nMenu\r\n\r\n00:00:00.000                             : :00:00:00.000\r\n00:02:48.668                             : :00:02:48.668\r\n00:13:15.294                             : :00:13:15.294\r\n00:22:26.053                             : :00:22:26.053\r\n00:27:21.849                             : :00:27:21.849\r\n00:34:36.199                             : :00:34:36.199\r\n00:44:21.868                             : :00:44:21.868","torrent":{"xt":"urn:btih:de15746ca5e162868d8cfdca0e84fb270cfd25d3","amp;dn":"Lucifer+S01+1080p+BluRay+HEVC+DD5.1+x265","amp;tr":["udp%3A%2F%2Ftracker.leechers-paradise.org%3A6969","udp%3A%2F%2Fzer0day.ch%3A1337","udp%3A%2F%2Fopen.demonii.com%3A1337","udp%3A%2F%2Ftracker.coppersurfer.tk%3A6969","udp%3A%2F%2Fexodus.desync.com%3A6969"],"infoHash":"de15746ca5e162868d8cfdca0e84fb270cfd25d3","infoHashBuffer":{"type":"Buffer","data":[222,21,116,108,165,225,98,134,141,140,253,202,14,132,251,39,12,253,37,211]},"announce":[],"urlList":[]}}